<svg width="433" height="229" viewBox="0 0 433 229" fill="none" xmlns="http://www.w3.org/2000/svg">
<g clip-path="url(#clip0_1_2)">
<path fill-rule="evenodd" clip-rule="evenodd" d="M349.09 211.61H344.08V214.74H349.09V211.61Z" fill="black"/>
<path fill-rule="evenodd" clip-rule="evenodd" d="M336.74 210.58L330.9 204.57L323.85 206.48L322.09 210.41L324.6 208.57L330.15 207.66L334.47 212.53V213.83L330.15 218.7L324.6 217.79L322.09 215.95L323.85 219.88L330.9 221.79L336.74 215.78H340.55V215.21H343.25V211.16H340.55V210.59H336.74V210.58ZM335.42 212.24C335.18 212.24 334.98 212.66 334.98 213.17C334.98 213.68 335.18 214.1 335.42 214.1C335.66 214.1 335.86 213.68 335.86 213.17C335.86 212.66 335.66 212.24 335.42 212.24Z" fill="black"/>
<path fill-rule="evenodd" clip-rule="evenodd" d="M201.58 60.91C201.58 54.98 201.79 57.43 197.83 56.51V27.48C197.83 26.73 198.26 24.05 197.18 24.05H175.49C174.66 24.05 174.83 25.02 174.83 25.84C174.83 26.6 174.83 27.36 174.83 28.13V79.51C174.83 82.56 175.1 96.09 174.67 97.94C174.01 97.89 173.3 97.32 172.77 96.9C172.74 96.88 172.71 96.85 172.68 96.83L160.6 89.01C159.54 88.34 159.99 86.12 159.99 84.4V28.13C159.99 24.25 160.26 2.11 159.83 0.24C158.01 -0.18 150.64 0.0800003 148.25 0.0800003C147.65 0.0800003 147.46 0.33 147.11 0.57V5.14C147.11 6.76 147.46 8.9 146.57 9.17C145.03 9.62 138.84 8.82 137.65 9.39C136.88 10.16 137.99 31.32 137.32 34.18C133.64 34.18 113.42 33.91 111.55 34.34C110.81 35.87 111.22 46.53 111.22 49.34V95.17C110.26 95.81 109.91 95.5 108.12 95.5C105.71 95.5 98.97 95.13 97.52 95.83C97 98.04 97.36 103.32 97.36 106.1C97.36 109.7 98.65 108.87 87.9 108.87C87.34 108.87 87.27 108.75 86.76 108.71C86.76 108.24 86.73 107.92 86.7 107.48C86.65 106.78 86.76 107.31 86.76 106.59V84.25C86.76 83.56 86.64 83.34 86.63 82.93C86.62 82.47 87.12 80.99 85.95 80.99H63.61C62.97 80.99 62.4 81.11 61.98 81.32V96.16C61.98 101.9 62.65 101.39 59.86 101.38C57.84 101.38 54.26 101.03 52.85 101.71C52.85 103.94 52.83 106.17 52.85 108.4C52.87 110.34 53.17 110.23 51.22 110.2C50.41 110.19 48.66 110.11 48.36 110.6C47.91 111.34 48.35 114.48 48.3 115.59C48.27 116.3 48.16 116.42 47.61 116.53C45.87 116.87 43.32 116.34 41.51 116.67V130.08H410.36V107.93L403.27 105.86C402.25 105.35 400.95 105.15 399.86 104.87C399 104.65 399.02 104.65 397.96 104.65C397.9 105.35 397.79 105.66 397.79 106.61C397.79 108.07 398.09 110.98 397.47 112.16L393.7 110.06C392.89 109.52 391.61 109.03 390.86 108.5C389.9 107.82 388.85 107.82 388.82 106.3V97.65C388.44 97.46 388.12 97.32 387.53 97.32H371.38C370.05 97.32 370.4 98.29 370.4 99.6C370.4 101.15 370.6 107.14 370.37 108.38L370.24 108.74C369.99 109.24 370.28 109.14 369.01 109.46C368.27 109.65 368.12 109.61 367.33 109.74C366.63 109.85 366.69 110.06 365.85 110.22C363.11 110.74 363.88 109.86 363.88 106.95V81.83C363.88 80.5 364.14 72.01 363.63 71.16C363.22 70.46 360.97 68.99 359.62 67.99C358.46 67.14 354.45 63.56 353.28 63.56H347.73C346.51 63.56 347.1 65.45 346.92 66.33C346.74 67.2 345.11 66.72 343.98 66.98C343.96 67.69 343.81 68 343.81 68.93V98.62C342.44 98.94 339.81 98.94 338.43 98.62L338.39 45.32L337.94 44.8L332.27 44.77L331.75 44.32V39.75C330.77 39.09 330.78 39.11 329.35 38.89C329.26 38.88 328.88 38.8 328.7 38.73L326.78 38.2C326.3 38.07 326.19 37.87 325.63 37.72C325.08 37.58 324.71 37.63 324.24 37.48L319 36.2C318.07 36.01 318.57 36.02 317.84 35.73L315.26 35.05C310.04 33.99 310.74 33.19 310.74 37.94V84.42C310.74 85.57 310.92 86.91 310.35 87.78C309.66 88.81 306.34 95.41 305.53 96C305.05 94.99 305.64 92.47 305.24 91.4C304.93 90.54 304.51 90.76 303.64 90.56C302.68 90.34 303.09 90.04 302.11 89.81C302.11 87.67 302.61 85.73 301.13 85.73H290.53C289.24 85.73 289.54 86.64 289.55 87.85C289.59 95.65 290.36 93.41 286.94 94.21C286.4 95.33 286.61 97.49 286.61 99.1V114.76C286.22 114.95 285.9 115.09 285.31 115.09C283.17 115.09 278.49 115.35 276.67 114.93C276.67 113.69 276.51 113.11 276.51 111.83V107.43C276.51 106.71 276.96 106.57 276.07 106.25C275.06 105.89 271.23 106.53 270.81 106.12C270.41 105.74 270.61 84.91 270.66 81.16C270.66 80.4 270.79 80.06 270.26 79.77C269.32 79.25 256.5 79.54 254.51 79.54C254 79.54 253.57 79.84 253.21 80.03V111.83C253.21 112.88 253.59 115.58 252.56 115.58C245.6 115.58 246.04 116.45 246.04 112.48C246.04 110.7 246.34 101.53 245.88 101.06C244.47 100.38 239.62 101.41 238.21 100.73C237.8 100.32 238.04 63.39 238.05 56.37C238.05 55.61 238.36 53.92 237.56 53.92H212.12C211.33 53.92 211.63 55.46 211.63 56.2V91.59C211.64 95.76 210.91 93.21 208.86 94.2C208.43 95.09 208.7 98.71 208.7 100.07C208.7 103.14 209.2 104.96 207.72 104.96C205.82 104.96 203.51 105.22 201.69 104.8C201.69 90.17 201.69 75.54 201.69 60.93L201.58 60.91Z" fill="black"/>
<path d="M140.42 207.87C140.09 207.87 139.81 207.97 139.59 208.18C139.37 208.39 139.26 208.66 139.26 208.99V209.89C139.26 210.22 139.37 210.5 139.59 210.72C139.81 210.94 140.08 211.05 140.42 211.05H149.83C150.45 211.05 151.05 211.17 151.62 211.42C152.19 211.67 152.69 212.01 153.13 212.43C153.57 212.86 153.91 213.35 154.17 213.93C154.43 214.5 154.56 215.12 154.56 215.78V219.8C154.56 220.42 154.44 221.02 154.19 221.59C153.94 222.16 153.6 222.66 153.18 223.1C152.75 223.54 152.26 223.88 151.69 224.14C151.12 224.4 150.5 224.53 149.84 224.53H138.07C137.45 224.53 136.84 224.41 136.26 224.16C135.68 223.91 135.17 223.57 134.73 223.15C134.29 222.72 133.95 222.23 133.69 221.65C133.43 221.08 133.3 220.46 133.3 219.8V217.65H139.28V218.05C139.28 218.42 139.42 218.74 139.69 219C139.96 219.26 140.28 219.39 140.66 219.39H147.48C147.81 219.39 148.08 219.28 148.29 219.06C148.5 218.84 148.6 218.57 148.6 218.23V217.2C148.6 216.87 148.5 216.59 148.29 216.37C148.08 216.15 147.81 216.04 147.48 216.04H138.1C137.48 216.04 136.87 215.91 136.29 215.64C135.71 215.37 135.2 215.01 134.76 214.57C134.32 214.12 133.98 213.6 133.72 213C133.46 212.4 133.33 211.76 133.33 211.1V207.46C133.33 206.84 133.45 206.24 133.7 205.67C133.95 205.1 134.29 204.6 134.71 204.16C135.14 203.72 135.64 203.38 136.22 203.12C136.8 202.86 137.42 202.73 138.09 202.73H149.3C149.92 202.73 150.53 202.85 151.11 203.1C151.69 203.35 152.2 203.69 152.64 204.11C153.08 204.54 153.42 205.03 153.68 205.6C153.94 206.17 154.07 206.79 154.07 207.45V209.6H148.09V209.19C148.09 208.82 147.96 208.5 147.69 208.24C147.42 207.98 147.1 207.85 146.72 207.85H140.43L140.42 207.87ZM176.96 224.54H158.15V202.74H176.96V207.97H164.16V210.84H174.56V216.1H164.16V219.31H176.96V224.54ZM212.78 202.73L205.74 224.53H199.67L195.96 211.07L192.28 224.53H186.21L179.17 202.73H185.34L189.23 217.46L193.06 202.73H198.85L202.68 217.46L206.6 202.73H212.77H212.78ZM233.93 224.54H215.12V202.74H233.93V207.97H221.13V210.84H231.53V216.1H221.13V219.31H233.93V224.54ZM254.14 202.73C254.76 202.73 255.36 202.85 255.93 203.1C256.5 203.35 257 203.69 257.44 204.11C257.88 204.54 258.22 205.03 258.48 205.6C258.74 206.17 258.87 206.79 258.87 207.45V212.75C258.87 213.33 258.77 213.89 258.56 214.42C258.35 214.95 258.06 215.42 257.69 215.84C257.32 216.26 256.87 216.6 256.35 216.88C255.83 217.16 255.26 217.34 254.64 217.43L258.94 224.53H252.46L248.19 217.49H243.42V224.53H237.41V202.73H254.14ZM252.9 209.33C252.9 208.96 252.77 208.63 252.51 208.36C252.25 208.09 251.93 207.96 251.56 207.96H243.43V212.26H251.56C251.93 212.26 252.25 212.13 252.51 211.85C252.77 211.58 252.9 211.26 252.9 210.88V209.32V209.33ZM278.94 224.54C278.32 224.54 277.72 224.42 277.15 224.17C276.58 223.92 276.08 223.58 275.64 223.16C275.2 222.73 274.86 222.24 274.6 221.66C274.34 221.09 274.21 220.47 274.21 219.81V207.47C274.21 206.85 274.33 206.25 274.58 205.68C274.83 205.11 275.17 204.61 275.59 204.17C276.02 203.73 276.51 203.39 277.08 203.13C277.65 202.87 278.27 202.74 278.93 202.74H289.64C290.26 202.74 290.87 202.86 291.45 203.11C292.03 203.36 292.54 203.7 292.98 204.12C293.42 204.55 293.76 205.04 294.02 205.61C294.28 206.18 294.41 206.8 294.41 207.46V210.29H288.43V209.32C288.43 208.95 288.3 208.62 288.02 208.35C287.75 208.08 287.43 207.95 287.05 207.95H281.51C281.14 207.95 280.82 208.08 280.56 208.35C280.3 208.62 280.17 208.94 280.17 209.32V217.92C280.17 218.29 280.3 218.62 280.56 218.89C280.82 219.16 281.14 219.29 281.51 219.29H287.05C287.42 219.29 287.75 219.16 288.02 218.89C288.29 218.62 288.43 218.3 288.43 217.92V216.95H294.41V219.78C294.41 220.44 294.28 221.06 294.02 221.63C293.76 222.2 293.41 222.7 292.98 223.13C292.54 223.56 292.04 223.89 291.45 224.14C290.87 224.39 290.27 224.51 289.64 224.51H278.93L278.94 224.54ZM313.79 202.73C314.41 202.73 315.02 202.85 315.6 203.1C316.18 203.35 316.69 203.69 317.13 204.11C317.57 204.54 317.91 205.03 318.17 205.6C318.43 206.17 318.56 206.79 318.56 207.45V219.79C318.56 220.41 318.44 221.01 318.19 221.58C317.94 222.15 317.6 222.65 317.18 223.09C316.75 223.53 316.25 223.87 315.67 224.13C315.09 224.39 314.47 224.52 313.8 224.52H301.75C301.13 224.52 300.53 224.4 299.96 224.15C299.39 223.9 298.89 223.56 298.45 223.14C298.01 222.71 297.67 222.22 297.41 221.64C297.15 221.07 297.02 220.45 297.02 219.79V207.45C297.02 206.83 297.14 206.23 297.39 205.66C297.64 205.09 297.98 204.59 298.4 204.15C298.83 203.71 299.32 203.37 299.89 203.11C300.46 202.85 301.08 202.72 301.74 202.72H313.79V202.73ZM312.58 209.33C312.58 208.96 312.45 208.63 312.17 208.36C311.9 208.09 311.58 207.96 311.2 207.96H304.32C303.97 207.96 303.66 208.09 303.39 208.36C303.12 208.63 302.98 208.95 302.98 209.33V217.93C302.98 218.3 303.11 218.63 303.39 218.9C303.66 219.17 303.97 219.3 304.32 219.3H311.2C311.57 219.3 311.9 219.17 312.17 218.9C312.44 218.63 312.58 218.31 312.58 217.93V209.33Z" fill="black"/>
<path d="M40.5 64.99H42.13V63H48.19V64.99H106.42V72.99H48.19V75.05H42.13V72.99H40.5C37.41 72.99 34.59 74.26 32.55 76.3C30.85 78 29.68 80.24 29.34 82.74H31.35V88.8H29.23V128.51C28.8 128.43 28.33 128.42 27.84 128.49C27.36 128.56 26.88 128.56 26.41 128.63L22.27 129.17H22.22C21.87 129.24 21.54 129.29 21.23 129.37V88.8H19.3V82.74H21.28C21.65 78.04 23.72 73.8 26.88 70.65C30.37 67.16 35.19 64.99 40.49 64.99H40.5ZM97.62 209.18H122.69V217.18H82.58C82.54 217.11 82.49 217.05 82.45 216.99C82.46 216.99 82.48 216.99 82.49 216.99C84.18 217.1 85.03 216.14 86.1 215.21C86.22 215.13 86.35 215.02 86.49 214.9C86.58 214.82 86.66 214.75 86.75 214.66L87.67 213.88L87.73 213.83C87.94 213.63 88.18 213.46 88.39 213.25C88.59 213.08 88.78 212.94 88.98 212.74C89.07 212.65 89.17 212.57 89.27 212.48C90.17 212.24 90.91 211.9 91.48 211.04C91.5 211.01 91.51 210.99 91.53 210.96L91.64 211.01C91.64 211.01 91.7 211.04 91.72 211.05C91.72 211.05 91.74 211.06 91.75 211.07C94.01 212.62 96.5 211.31 97.64 209.17L97.62 209.18ZM23.06 206.09C22.09 204.04 21.48 201.79 21.29 199.43H19.31V193.37H21.24V178.11C21.38 178.12 21.53 178.13 21.68 178.14C22.02 179.14 22.37 180.13 22.84 181.09C23.03 181.47 23.21 181.75 23.45 182.09C23.71 182.51 23.99 183.25 24.18 183.73C24.45 184.4 24.75 185.07 25.03 185.74C24.89 185.83 24.74 185.95 24.58 186.09C23.12 187.42 23.21 189.22 23.89 190.91C24.03 191.25 24.18 191.5 24.34 191.8V191.84L25.98 195.38L26.01 195.45C26.96 197.37 27.71 199.38 28.64 201.31C28.55 201.35 28.46 201.38 28.37 201.42C27.01 201.96 25.43 202.84 24.47 203.94C23.9 204.59 23.43 205.32 23.06 206.1V206.09ZM164.79 64.99H170.03V72.99H164.79V64.99ZM242.73 64.99H305.89V72.99H242.69C242.69 70.32 242.71 67.66 242.72 64.99H242.73ZM363.71 64.99H403.65V63H409.71V64.99H411.34C416.64 64.99 421.46 67.16 424.95 70.65C428.1 73.8 430.18 78.04 430.55 82.74H432.53V88.8H430.6V193.37H432.53V199.43H430.55C430.18 204.13 428.11 208.37 424.95 211.52C421.46 215.01 416.64 217.18 411.34 217.18H409.71V219.17H403.65V217.18H344.99V209.18H403.65V207.12H409.71V209.18H411.34C414.43 209.18 417.25 207.91 419.29 205.87C420.99 204.17 422.16 201.93 422.5 199.43H420.49V193.37H422.61V88.8H420.49V82.74H422.5C422.16 80.25 421 78.01 419.29 76.3C417.25 74.26 414.43 72.99 411.34 72.99H409.71V75.05H403.65V72.99H368.67C368.55 71.19 368.28 69.6 367.73 68.67C366.9 67.28 365.22 66.05 363.71 64.99Z" fill="#808080"/>
<path fill-rule="evenodd" clip-rule="evenodd" d="M27.57 208.95C27.57 209.19 28.33 209.67 28.68 210.02L31.41 212.83C31.62 213.04 31.76 213.21 32.14 213.22C32.05 212.82 30.96 211.78 30.62 211.44C30.39 211.21 30.32 211.06 30.1 210.84L28.41 209.23C28.41 209.23 27.57 208.27 27.57 208.95ZM70.43 221.91C70.43 221.74 70.46 221.82 70.51 221.61C70.7 221.75 70.72 221.97 70.8 222.22C71.24 223.58 71.59 224.23 72.63 225.26C72.81 225.44 73.53 226.04 73.59 226.25C73.22 226.05 72.33 225.33 72.03 225.03C71.84 224.84 71.72 224.72 71.56 224.52C71.03 223.84 70.44 223.09 70.44 221.9L70.43 221.91ZM72.31 220.94C73.21 220.94 73.23 220.85 73.95 220.25C74.19 220.05 74.39 219.95 74.62 219.72C74.83 219.51 75 219.3 75.24 219.14V221.61C75.24 222.46 75.44 223.63 74.72 223.63C73.87 223.63 73.59 222.72 72.83 221.7C72.73 221.57 72.67 221.49 72.57 221.36C72.46 221.21 72.56 221.38 72.44 221.19C72.34 221.02 72.37 221.02 72.32 220.93L72.31 220.94ZM76.73 218.62C78.17 218.96 80.54 222.36 79.2 225.36C78.44 227.07 76.43 227.53 75.6 227.24C75.32 227.14 75.41 227.24 75.38 226.94C76.82 226.94 77.25 226.94 78.09 226.28C79.28 225.34 79.28 224.37 79.28 223.12C79.28 222.12 78.65 220.83 78.02 220.04C77.75 219.7 77.51 219.39 77.16 219.1C76.7 218.72 76.97 219.08 76.73 218.63V218.62ZM26.83 211.87C26.83 210.08 26.99 208.25 28.19 206.94C28.49 206.62 28.46 206.72 28.87 206.57C29.43 206.36 29.59 206.1 30.65 206.1C31.97 206.1 33.27 206.79 34.16 207.46L35.23 208.34C35.4 208.48 35.57 208.65 35.71 208.83C36.01 209.22 36.29 209.48 36.6 209.89C36.89 210.28 37.15 210.64 37.39 211.04C37.96 211.99 38.29 212.55 38.71 213.61C39.67 216.03 40.65 220.48 38.67 222.97C36.84 225.27 34.08 224.16 32.21 222.73L31.48 222.11C28.97 219.62 26.82 215.39 26.82 211.86L26.83 211.87ZM71.86 219.06C70.39 219.06 68.57 218.22 67 217.7L63.33 216.35C63.09 216.26 62.84 216.15 62.58 216.05C60.25 215.21 57.19 214.23 54.82 213.69C53.3 213.34 52.97 213.59 52.08 213.59C51.74 213.59 51.38 213.56 51.05 213.61L45.33 213.96C43.85 213.96 43.63 214.13 43.46 213.58C43.39 213.37 43.31 213.1 43.31 212.83C43.65 212.83 43.85 212.83 44.17 212.78C44.64 212.71 44.67 212.83 45.02 212.8C45.54 212.76 46.15 212.67 46.76 212.67L53.36 212.61C54.45 212.58 56.48 212.96 57.48 213.26C59.53 213.87 61.21 214.18 63.46 214.93L65.58 215.65C66.5 215.9 68.56 216.65 69.31 216.71C69.31 216.34 69.45 216.51 68.71 216.19C67.58 215.7 63.81 214.37 62.73 214.01C61.29 213.53 56.86 212.3 55.39 212.06C53.05 211.67 53.09 211.93 51.03 211.92C49.8 211.92 47.51 211.79 46.4 211.94C45.45 212.07 45.01 212.14 44.71 211.42C44.2 210.22 44.24 207.27 46.98 207.27C49.48 207.27 50.69 207.49 52.92 208.37C53.19 208.48 53.35 208.55 53.6 208.66C53.86 208.77 54.12 208.84 54.33 208.98C55.17 209.54 54.43 209.19 55.56 209.69C58.6 211.04 59.62 209.66 60.31 209.66C60.86 209.66 61.44 209.85 61.9 209.94C63.73 210.31 64.93 210.28 66.65 209.41C67.97 208.75 67.15 208.43 69.51 209.07C71.58 209.64 73.64 210.29 75.74 210.78C75.7 211.27 73.86 213.67 73.45 214.18C72.91 214.86 72 216.22 71.53 216.53C71.43 216.59 70.53 217.14 71.17 217.14C72.24 217.14 73.28 215.31 74.12 214.25C74.36 213.95 74.53 213.78 74.75 213.45C75.29 212.65 77.46 209.75 77.98 209.33C78.73 208.72 80.62 207.85 81.7 207.2C82.77 206.56 82.93 206.15 83.32 205.89C83.71 205.98 84.12 206.14 84.51 206.27C84.89 206.4 85.31 206.51 85.71 206.64L88.19 207.38C87.99 207.66 87.32 207.77 86.9 207.82C85.89 207.93 83.1 208.33 82.37 208.54C80.82 208.98 79.16 210.1 78.31 211.45L75.91 215.12C74.79 216.51 74.67 217.24 73.07 218.43C72.85 218.59 72.16 219.01 71.85 219.01L71.86 219.06ZM91.79 207.3C91.79 206.95 91.97 206.49 92.09 206.25C92.52 206.29 92.78 206.51 93.21 206.55C93.18 206.86 93.1 206.9 93.06 207.23C93.02 207.54 92.98 207.68 92.98 207.98C92.71 207.92 92.53 207.79 92.31 207.68C91.87 207.47 91.79 207.55 91.79 207.31V207.3ZM90.37 206.48C90.37 206.1 90.49 206.08 90.52 205.73C90.9 205.73 91.09 205.88 91.42 205.95C91.42 206.06 91.16 207 91.12 207.07C90.53 206.93 90.37 206.9 90.37 206.47V206.48ZM89.99 205.65C89.56 205.61 89.3 205.39 88.87 205.35V204.98C89.28 204.98 89.76 205.19 90.14 205.28C90.09 205.48 90.07 205.5 89.99 205.65ZM73.51 205.5C73.9 206.24 73.68 206.4 75.31 206.85L77.73 207.51C78.7 207.69 79.44 207.32 80.01 206.83C80.46 206.45 81.1 205.65 81.38 205.13L82.73 205.21C82.52 206.1 80.77 206.81 80 207.28C79.47 207.6 78.97 207.79 78.44 208.12C78.02 208.39 77.14 209.11 77.03 209.11C77.01 209.11 71.4 206.97 71.04 206.94C71.06 206.67 71.13 206.58 71.19 206.34C73.17 206.34 72.87 205.69 73.51 205.52V205.5ZM47.03 204.8C47.16 204.71 47.23 204.67 47.35 204.59C47.58 204.44 47.75 204.32 47.98 204.17L49.24 203.33C50.01 203.85 50.82 204.09 51.76 204.41L59.58 207.16C59.4 207.4 58.46 207.81 58.11 208.02C57.83 208.19 57.61 208.29 57.34 208.45C55.95 209.3 55.23 208.56 53.24 207.73C52.54 207.44 47.45 205.24 46.69 205.06L47.03 204.8ZM83.4 205.13C83.4 204.95 83.6 203.84 83.66 203.73C83.78 203.5 83.87 203.59 84.18 203.67C84.45 203.73 84.6 203.76 84.86 203.83C85.37 203.96 87.1 204.29 87.45 204.46C87.34 205.78 87.12 205.07 87.52 206.78L85.39 206.06C84.99 205.93 84.74 205.82 84.33 205.7C83.66 205.51 83.4 205.47 83.4 205.13ZM84.84 203.31C84.58 203.25 84.23 203.11 83.93 203.1C83.93 202.82 83.99 202.78 84.27 202.82L87.75 203.7C87.73 203.9 87.71 203.9 87.68 204.07C87.38 204.07 86.29 203.67 85.81 203.54C85.49 203.45 85.19 203.39 84.85 203.3L84.84 203.31ZM79.88 203.1C79.88 202.62 80 202.44 80.03 202.05C80.88 202.05 81.01 202.12 81.38 202.12C81.38 202.58 81.25 202.76 81.22 203.31C81.18 203.92 81.27 203.94 81.31 204.37C81.1 204.32 81 204.27 80.79 204.21C80.02 203.97 80.1 204.19 79.96 203.69C79.9 203.46 79.88 203.37 79.88 203.1ZM71.03 200.78C71.46 200.78 72.98 201.22 73.28 201.38C73.22 201.63 73.13 202.51 73.13 202.8C72.84 202.78 72.74 202.7 72.5 202.61C71.58 202.25 71.03 202.45 71.03 201.6V200.78ZM81.08 201.22C81.37 201.26 81.54 201.31 81.82 201.31C81.77 201.51 81.75 201.53 81.67 201.68C81.29 201.65 80.21 201.6 80.38 201.3C80.52 201.05 80.85 201.18 81.08 201.22ZM34.92 201.23C35.07 201.16 35.58 200.97 35.74 200.93C35.89 201.22 35.99 201.57 36.12 201.89L37.38 204.6L36.21 203.9L35.98 203.76C35.73 203.57 34.99 201.56 34.91 201.23H34.92ZM71.11 200.33C71.13 200.08 71.21 199.88 71.26 199.66C71.68 199.66 73.22 200.11 73.51 200.26C73.45 200.51 73.48 200.78 73.21 200.78L71.11 200.33ZM66.61 204.6C66.22 204.51 65.81 204.35 65.42 204.22C65.22 204.15 65.03 204.1 64.78 204.03C64.02 203.81 64 204.03 63.7 202.79C63.44 201.73 64.26 200.29 65.09 199.79C65.32 199.65 65.33 199.69 65.66 199.79L67.51 200.2C67.1 200.82 66.31 201.53 66.31 202.82C66.31 204.18 66.38 203.62 66.61 204.62V204.6ZM73.96 202.65C73.96 201.54 74.28 200.36 74.65 199.36C74.75 199.1 74.95 198.71 75.01 198.45C75.4 198.45 75.72 198.59 76.06 198.67C76.36 198.74 76.78 198.89 77.11 198.89C77.08 199.19 75.84 201.16 75.84 203.39C75.84 205.88 76.1 205.23 76.36 206.39C76.25 206.39 74.56 205.93 74.41 205.72C73.99 205.11 73.96 203.49 73.96 202.64V202.65ZM71.71 198.76C71.78 198.63 72 198.24 72.16 198.24C72.32 198.24 73.95 198.57 74.03 198.61C74 198.92 73.94 198.86 73.88 199.13C73.5 199.13 71.92 198.86 71.71 198.76ZM75.3 198.01C75.42 197.78 75.54 197.7 75.6 197.49C75.96 197.52 77.14 197.97 77.7 198.01C77.67 198.36 77.64 198.21 77.48 198.46L75.31 198.01H75.3ZM68.64 199.73C68.3 199.73 68.07 199.6 67.8 199.52L65.43 198.89C65.17 198.63 65.57 197.55 65.69 197.31C66.51 195.63 66.03 196.1 68.58 196.72C68.8 196.77 69.08 196.81 69.24 196.88C69.2 197.35 68.64 198.54 68.64 199.73ZM41.36 204C40.84 203.77 40.46 203.77 40.46 203.48C40.46 201.39 40.58 199.54 40.46 197.4C40.44 197.05 40.33 196.94 40.64 197C40.64 197 43.77 198.08 44.74 198.31C44.73 198.84 44.59 199.44 44.59 200.03C44.59 200.54 44.64 201.33 44.57 201.81C44.43 202.83 44.52 204.2 44.52 205.35L41.37 204H41.36ZM40.76 196.21C41.08 196.14 42.16 195.56 42.47 195.37C43.54 194.72 43.59 194.6 44.12 194.79L48.03 195.91C47.84 196.17 46.81 196.59 46.43 196.78C44.48 197.77 45.45 197.81 43.88 197.28L40.76 196.2V196.21ZM67.06 195.09C67.23 195.09 69.71 195.71 69.83 195.76C69.78 195.99 69.71 196.05 69.61 196.21C69.11 196.09 68.67 195.98 68.14 195.88C67.67 195.79 67.13 195.65 66.68 195.61C66.8 195.43 66.94 195.26 67.05 195.09H67.06ZM43.61 193.89C43.61 192.74 44.87 191.03 45.48 190.44C45.83 190.44 46.22 190.59 46.53 190.66C46.53 191.3 46.46 191.3 46.97 191.5L53.18 193.31C54.29 193.61 53.6 193.22 54.62 192.54C54.96 192.62 55.25 192.74 55.59 192.84L60.63 194.17C61.17 194.31 62.22 194.51 62.64 194.71C62.5 194.92 62.32 195.06 62.13 195.25C60.23 197.12 59.19 201.04 59.61 203.81C59.84 205.34 60.07 205.59 60.69 206.77C60.22 206.66 59.7 206.45 59.24 206.27L49.95 202.89C49.13 202.77 49.22 203.3 49.22 201.52C49.22 200.45 49.36 199.01 49.25 198.27C49.11 197.36 49.45 195.69 48.81 195.34C48.57 195.21 47.77 195 47.49 194.94L44.83 194.3C44.05 194.13 43.6 194.17 43.6 193.88L43.61 193.89ZM64.07 193.81C64.07 193.27 64.14 192.99 64.15 192.54C64.15 192.19 64 191.41 64.37 191.41C65.53 191.41 66.2 191.25 66.77 191.63C66.69 191.98 66.56 192.3 66.47 192.68C66.39 193.02 66.33 193.39 66.25 193.73C65.87 193.73 65.48 193.59 65.15 193.61C64.71 193.64 64.42 193.77 64.07 193.8V193.81ZM61.97 193.58C61.55 193.49 61.12 193.38 60.68 193.29C59.17 192.99 59.41 193.49 59.63 191.47C59.8 189.92 58.66 190.24 63.69 191.41L63.24 193.88L61.97 193.57V193.58ZM47.21 191.12C47.3 190.77 48.41 189.82 48.74 189.58C49.22 189.23 49.19 189.23 49.76 189.4C50.42 189.59 55.3 191.02 55.68 191.05V191.2C54.86 191.39 53.91 192.17 53.51 192.77C53.22 192.7 53.02 192.61 52.71 192.52C51.97 192.3 47.79 191.17 47.21 191.12ZM62.51 189.52C62.31 189.45 62.52 189.52 62.31 189.42C62.05 189.29 62.19 189.32 61.82 189.32C61.87 189.12 61.89 189.1 61.97 188.95C62.26 189.09 62.61 189.16 62.94 189.25C63.6 189.42 65.39 189.96 65.86 190V190.3C65.52 190.3 62.94 189.67 62.51 189.53V189.52ZM66.39 190.52C66.43 190.08 66.68 189.96 66.97 189.75C67.7 189.21 68.6 188.5 69.61 188.5C69.94 188.5 69.76 190.08 69.01 190.45C66.89 191.51 67.45 190.91 66.98 190.68C66.86 190.62 66.54 190.56 66.39 190.52ZM34.99 203.25C34.53 203.14 34.81 203.17 34.49 202.4C34.36 202.09 34.22 201.81 34.09 201.52C33.81 200.9 33.56 200.34 33.29 199.7C33.16 199.39 33.02 199.07 32.87 198.77C32.71 198.46 32.63 198.21 32.47 197.9L28.32 189.16C28.55 189.01 28.96 188.66 29.29 188.64L30.59 191.77C31.01 192.82 31.46 193.76 31.88 194.82C32.1 195.38 32.32 195.84 32.56 196.39L33.86 199.44C34.61 201.13 34.16 200.35 34.16 201.01C34.16 201.59 34.95 202.87 34.98 203.26L34.99 203.25ZM60.77 188.19C60.77 187.71 60.96 187.57 61.14 187.29L64.05 188.05C65.2 188.46 65.88 188.53 66.98 188.79C66.9 189.02 66.99 188.86 66.78 189.04C65.94 189.75 66.28 189.6 64.79 189.18L60.76 188.19H60.77ZM58.45 189.24C58.45 188.9 58.91 188.08 59.1 187.87C59.27 187.69 59.42 187.62 59.63 187.42C59.81 187.25 59.99 187.12 60.17 186.99C60.45 186.79 62.55 185.42 62.79 186.32C62.42 186.5 62.51 186.24 62.12 186.24C61.7 186.24 61.01 186.53 60.79 186.86C60.55 187.23 60.25 187.46 60.25 188.04C60.25 188.52 60.31 188.51 60.75 188.59C60.98 188.63 61.19 188.73 61.45 188.79C61.36 189.18 61.02 189.5 60.6 189.59L58.73 189.65C58.45 189.58 58.46 189.59 58.46 189.25L58.45 189.24ZM45.94 183.01C45.75 182.52 45.7 182.56 45.72 182.34C45.79 181.73 46.15 182.62 46.23 182.8L48.7 188.27C48.01 188.25 48.17 188.07 47.69 186.95C47.2 185.79 46.32 184.03 45.93 183.01H45.94ZM30.35 184.97C30.61 184.85 31.01 184.77 31.32 184.66C31.64 184.55 31.89 184.44 32.26 184.32C34.58 183.56 37.25 182.42 39.55 181.64C40.21 181.42 44.59 179.65 44.97 179.64C45.06 180.03 45.31 180.41 45.34 180.76C44.98 180.95 43.54 181.5 43.54 182.11C43.54 182.88 46.21 188.24 46.31 188.7L45.42 189.46C44.65 190.08 43.7 191.27 43.31 192.15C42.83 193.24 42.8 193.47 42.93 194.4C42.29 194.74 41.62 195.01 41 195.39C39.23 196.46 39.98 196.08 39.91 196.91C39.87 197.41 39.79 197.78 39.79 198.29C39.79 198.83 39.78 199.21 39.73 199.65C39.64 200.43 39.72 201.72 39.72 202.56C39.49 202.48 39.63 202.57 39.49 202.34L36.62 196.22C35.8 194.6 34.93 192.53 34.1 190.87L33.08 188.75C32.83 188.21 32.34 187.12 31.99 186.7C31.72 186.37 31.45 186.31 30.89 186.31C30.79 186.1 30.69 185.84 30.59 185.63C30.51 185.45 30.38 185.18 30.36 184.96L30.35 184.97ZM29.67 183.55C29.82 183.48 30.04 183.45 30.2 183.41L40.95 179.55C41.6 179.32 42.15 179.08 42.8 178.86C44.56 178.27 44.85 177.81 44.87 178.91L41.1 180.31C39.84 180.8 38.68 181.23 37.41 181.71C36.15 182.19 34.97 182.62 33.73 183.12L30.11 184.6C30.01 184.42 29.97 184.26 29.88 184.08C29.79 183.88 29.71 183.8 29.66 183.55H29.67ZM14.39 180.33C14.03 180.14 13.97 180.04 13.72 179.72C13.43 179.35 13.48 179.38 13.49 178.76C13.49 177.94 13.49 177.11 13.49 176.29C13.67 176.34 14.06 176.69 14.26 176.87C14.6 177.17 14.55 177.36 14.49 177.81C14.43 178.24 14.47 178.7 14.47 179.14C14.47 179.65 14.39 179.82 14.39 180.34V180.33ZM13.56 175.61C13.78 175.46 14.06 175.19 14.38 175.16C14.57 175.86 15.2 175.16 15.2 175.16C15.6 175.27 16.07 175.73 16.1 176.13C15.42 176.29 14.98 176.58 14.75 176.58C14.74 176.58 13.73 175.88 13.55 175.61H13.56ZM19.63 166.84C19.97 167.23 20.68 168.77 20.88 169.19L22.1 171.49C21.52 171.35 20.64 170.07 20.43 169.56C20.25 169.13 19.64 167.29 19.63 166.84ZM17.31 165.64C17.31 165.33 17.54 164.02 17.76 163.77C18.14 165.4 18.54 166.93 19.01 168.52C19.2 169.17 19.54 170.17 19.88 170.65L21.21 172.24C19.91 172.13 19.03 171.24 18.46 170.19C17.58 168.57 17.31 167.4 17.31 165.64ZM19.32 158.74C19.42 158.47 19.53 158.33 19.55 158L20.16 159.78C20.31 160.31 20.47 160.89 20.64 161.48L23.31 171.02C23.38 171.26 23.49 171.56 23.52 171.86C23.3 171.78 23.42 171.89 23.26 171.59L22.77 170.58C22.55 170.17 22.29 169.77 22.07 169.33C21.83 168.86 21.65 168.41 21.42 167.95L20.39 165.98C19.82 164.8 18.57 162.06 18.57 160.98L19.31 158.72L19.32 158.74ZM40.09 166.39C39.85 166.3 39.26 165.27 39.12 165.04L37.78 162.93C37.57 162.59 36.56 161.09 36.49 160.85C37.05 160.9 36.46 161.02 37.61 160.85C37.73 161.08 37.83 161.29 37.96 161.55L38.99 163.52C39.39 164.31 40.01 165.5 40.09 166.39ZM34.62 156.5C34.88 156.44 34.88 156.35 35.14 156.35C35.31 156.35 36.43 158.68 36.74 159.25C36.93 159.59 37.15 159.85 37.24 160.25C35.92 160.56 35.95 160.07 35.35 159.14C34.06 157.13 34.62 158.18 34.62 156.5ZM28.2 148C27.99 147.68 26.7 145.82 26.67 145.48C27.1 145.58 27.71 145.98 28 146.25C29.74 147.88 30.19 148.8 31.24 151.18L32.9 155.14C32.99 155.33 32.98 155.2 33.04 155.45L28.2 148ZM34.84 155.67C34.64 155.78 34.52 155.87 34.24 155.89C34.06 155.54 32.92 153.14 32.89 152.74C33.35 153.05 34.54 155.09 34.84 155.66V155.67ZM16.56 149.15C16.56 148.56 16.7 148.21 16.71 147.73H16.86C17.04 148.49 17.26 149.2 17.44 149.92L18.63 154.2C18.75 154.61 19.18 156.01 19.18 156.35C19.18 156.78 18.45 158.63 18.3 158.91C18.18 159.12 18.3 159.05 18.06 159.12C17.8 158.01 17.46 156.73 17.27 155.57C17.01 154 16.56 150.67 16.56 149.16V149.15ZM37.84 168.86C37.28 168.81 35.87 167.59 35.42 167.16C33.58 165.39 32.14 163.69 30.73 161.58L29.14 159.05C28.13 157.36 27.84 156.93 27.07 154.98L25.34 150.57C25.23 150.29 25.17 150.11 25.06 149.8C24.96 149.51 24.88 149.38 24.81 149.08C24.97 149.2 25.58 150.1 25.66 150.33C25.72 150.51 25.81 151.03 25.84 151.2C26.22 152.97 27.27 154.58 27.6 155.58C27.83 156.29 29.61 158.61 30.11 159.22L31.54 160.86C31.76 161.08 31.83 161.21 32.03 161.42L33.53 162.99C33.85 163.36 34.09 163.76 34.53 164.02C35.03 164.32 35.02 164.48 35.48 165.17L37.86 168.86H37.84ZM40.99 162.87C40.9 162.76 40.89 162.76 40.82 162.59C40.78 162.5 40.75 162.41 40.71 162.32C40.63 162.11 40.59 162 40.51 161.77L39.66 159.47C39.5 159.11 39.38 158.77 39.22 158.42C38.87 157.69 38.53 157.02 38.14 156.35C37.14 154.61 36.99 154.15 35.76 152.51C35.53 152.2 35.33 151.92 35.11 151.59L33.79 149.84C33.55 149.55 33.35 149.3 33.12 149.01L32.4 148.16C32.16 147.92 31.8 147.7 31.71 147.36C32.77 148.07 33.91 149.59 34.66 150.63L35.99 152.45C36.55 153.27 37.34 154.43 37.77 155.31C38.21 156.19 39.08 157.59 39.39 158.34C39.7 159.08 40 159.78 40.26 160.55L41 162.88L40.99 162.87ZM13.94 145.48C14.09 145.42 14.19 145.41 14.39 145.41C14.32 145.65 14.26 145.72 14.02 145.78C13.94 145.62 13.97 145.71 13.95 145.48H13.94ZM42.34 168.49C42.49 168.18 42.69 166.75 42.63 166.25L42.1 162.96C42.03 162.6 41.91 162.37 41.79 162C40.39 157.76 39.34 156.36 37.11 152.82C36.94 152.55 36.8 152.31 36.6 152.05C36.22 151.55 35.87 151.09 35.54 150.56L33.92 148.36C32.52 146.64 31.14 145.42 29.33 144.18C28.27 143.46 27.89 143.72 27.65 143.39C28.52 143.59 28.7 143.63 29.4 144.04C30.91 144.94 32.04 145.96 33.29 147.19C33.82 147.72 34.2 148.27 34.62 148.86C34.72 149 34.77 149.04 34.89 149.19C35.43 149.88 35.82 150.54 36.32 151.29C36.5 151.57 36.64 151.73 36.82 151.99L38.2 154.13C38.53 154.62 38.77 155.06 39.1 155.55C40.24 157.25 39.96 157.11 40.73 158.64C41.58 160.35 42.2 162.02 42.58 163.9C42.86 165.28 43.03 166.27 42.72 167.72C42.6 168.3 42.58 168.39 42.35 168.47L42.34 168.49ZM12.8 141.18C13.12 141.17 13.16 141.59 13.22 141.86L13.94 144.5L13.42 144.66C13.35 144.35 13.24 144.06 13.15 143.73C13.06 143.38 13.02 143.16 12.94 142.82C12.79 142.23 12.43 141.2 12.81 141.18H12.8ZM26 142.19C25.83 142.23 25.83 142.27 25.63 142.27C25.46 142.27 25.49 142.03 25.44 141.86C25.17 140.77 24 140.1 23.98 139.2H24.2C24.37 139.91 25.95 141.62 26 142.2V142.19ZM26.45 167.81C26.45 164.03 25.15 159.24 23.77 155.72L22.28 152.34C22.13 152.04 21.99 151.82 21.83 151.52C20.12 148.45 21.06 151.03 19.98 147.23L17.91 139.56C17.75 138.93 17.53 138.31 17.39 137.69C17.61 137.84 17.96 138.41 18.13 138.68L20.83 142.88C21.06 143.25 21.27 143.55 21.5 143.93C21.73 144.29 21.96 144.62 22.19 144.96C22.76 145.82 22.49 145.53 22.49 146.16C22.49 148.92 22.68 148.98 23.33 151.61C23.75 153.31 24.3 154.26 24.95 155.68C25.05 155.89 25.05 155.86 25.15 156.08C26.24 158.52 26.7 158.87 27.98 160.81L31.41 164.94C32.45 166 33.38 167.1 34.67 167.97C36.16 168.96 36.26 169.15 37.54 170.12C38.14 170.57 38.53 170.88 39.25 170.88C39.42 171.2 39.6 171.44 39.8 171.75C40 172.05 40.14 172.27 40.34 172.56C41.22 173.83 41.24 173.9 41.95 175.07C42.19 175.47 43.46 177.32 43.52 177.55L39.91 178.89C38.34 179.45 30.23 182.48 29.43 183.02C28.91 182.24 29.47 182.87 29.13 181.6L26.97 173.57C25.33 167.6 26.43 171.77 26.43 167.82L26.45 167.81ZM16.32 142.95C16.02 141.89 15.71 140.78 15.39 139.68L14.46 136.41C14.71 136.29 14.98 136.26 15.36 136.26C15.49 135.65 15.29 136.06 15.81 135.81C15.89 136.17 16.06 136.38 16.15 136.81L17.2 141.08C17.3 141.45 17.36 141.75 17.46 142.1L20.22 152.53C20.59 153.96 20.96 155.29 21.33 156.74L25.24 171.34C26.07 174.72 27.13 178.34 28 181.77C28.11 182.2 28.19 182.22 28.37 182.75C28.7 183.74 29.87 186.4 30.33 187.38C31 188.82 31.66 190.51 32.35 191.95L35.18 198.26C35.41 198.81 35.9 199.58 35.9 200.17C35.55 200.26 35.45 200.5 34.93 200.54L29.95 188.66C29.71 188.09 29.79 188.37 29.91 187.88C29.49 187.68 29.58 187.82 29.36 187.3L27.78 183.63C27.66 183.38 27.57 183.16 27.46 182.9C27.34 182.6 27.24 182.42 27.14 182.17C27.02 181.88 26.93 181.73 26.81 181.45C25.97 179.51 27.14 181.24 26.18 179.23C25.92 178.68 25.52 176.68 25.3 175.91C24.98 174.78 24.73 173.7 24.43 172.58L17.24 146.2C16.95 145.11 16.64 144.03 16.32 142.92V142.95ZM50.05 188.72C50.02 188.35 49.83 188.06 49.7 187.72L47.68 183.07C46.98 181.61 46.54 180.45 45.74 179.02C45.63 178.82 45.63 178.75 45.55 178.54C45.21 177.61 45.09 178.03 44.95 177.19C44.89 176.8 43.44 174.68 43.19 174.3C42.99 174 42.84 173.78 42.65 173.49L39.49 168.63C39.32 168.37 39.16 168.14 38.98 167.87L34.78 161.43C33.22 159.19 31.6 156.49 30.05 154.17C29.87 153.9 29.7 153.65 29.51 153.36L26.36 148.56C26.17 148.27 26.03 148.02 25.84 147.74L20.04 138.93C19.68 138.38 18.33 136.64 18.19 136.06C18.15 135.91 18.1 135.77 18.06 135.59H19.48C19.6 136.11 21.93 139.7 22.51 140.58C22.87 141.13 23.17 141.66 23.53 142.18C24.89 144.21 26.3 146.56 27.7 148.65L30.83 153.54C31.03 153.84 31.15 154.07 31.35 154.36L44.82 175.36C45 175.65 45.17 175.93 45.33 176.2L46.27 177.89C47.29 180.48 48.32 182.81 49.46 185.34L51.11 188.94C50.58 188.94 50.51 188.75 50.06 188.72H50.05ZM2.16999 136.57C2.16999 135.6 1.26999 135.53 2.29999 135.43L9.88999 134.25C10.27 134.97 10.67 136.59 9.86999 136.85L1.83999 137.81C1.59999 137.86 1.53999 137.92 1.26999 137.92C0.789994 137.92 0.289995 136.13 0.969995 135.67C1.27999 135.75 1.46999 136.02 1.59999 136.32C1.68999 136.54 1.68999 136.6 1.73999 136.85C1.77999 137 1.82999 137.14 1.86999 137.32C2.19999 137.23 2.16999 136.95 2.16999 136.57ZM10.71 134.62C11.58 134.62 12.69 134.37 13.5 134.26C15.06 134.04 18.79 133.49 20.28 133.17C20.62 133.1 21.33 132.98 21.66 132.97C21.86 133.82 22.75 134.01 19.93 134.17C18.18 134.27 15.51 134.63 13.78 134.91L10.87 135.45C10.84 135.13 10.73 134.97 10.72 134.63L10.71 134.62ZM21.88 132.52C22.95 132.52 25.79 132.19 26.96 132.06L28.55 131.85C28.95 131.85 29.64 133.54 28.82 134.07C28.65 134.18 26.22 134.44 25.93 134.48L22.18 135.07C22.83 133.72 21.96 132.85 21.88 132.52ZM24.73 142.41C24.5 142.41 24.46 142.17 24.34 141.98L22.21 138.71C21.98 138.37 21.82 138.08 21.6 137.75C19.87 135.17 19.79 135.55 20.84 135.36C21.17 135.3 21.19 135.27 21.45 135.42C21.79 135.63 21.55 135.54 21.96 135.52C23.36 135.44 24.79 135.25 26.15 135.06C27.05 134.93 27.91 134.78 28.85 134.69C29.69 134.61 29.92 133.44 29.82 132.76C29.68 131.84 29.22 131.16 28.23 131.3C27.72 131.37 27.3 131.37 26.79 131.44L22.68 131.98C22.12 132.07 21.64 132.13 21.21 132.46C21.2 132.46 21.18 132.48 21.17 132.49C21.16 132.49 21.14 132.51 21.13 132.52C21.12 132.52 21.1 132.54 21.09 132.55C20.77 132.74 21.41 132.43 20.99 132.6C20.7 132.72 15.63 133.33 14.87 133.45C13.92 133.6 13.12 133.68 12.18 133.83C11.7 133.91 11.29 133.96 10.83 134.06C9.90999 134.26 10.35 133.86 9.73999 133.86C8.74999 133.86 7.79999 134.05 6.88999 134.15C5.05999 134.36 3.16999 134.61 1.40999 134.96C0.409994 135.16 0.00999451 135.46 0.00999451 136.63C0.00999451 137.39 0.309995 137.83 0.739995 138.23C1.14999 138.6 1.92999 138.47 2.51999 138.39C3.87999 138.2 5.08999 138.08 6.42999 137.88C7.48999 137.72 9.21999 137.6 10.2 137.23C10.93 136.95 10.34 136.73 11.85 136.71C12.54 136.71 13.08 136.49 13.8 136.49L15.45 142.56C15.6 143.17 15.92 143.96 15.97 144.58C15.49 144.47 15.1 144.36 14.55 144.36C14.54 143.86 14.02 142.1 13.83 141.56C13.41 140.33 12.08 140.41 12.08 141.37C12.08 141.94 12.8 144.36 13.05 144.89C11.95 145.62 11.32 146.69 10.83 147.92C9.77999 150.54 9.65999 153.09 10.3 155.88C10.51 156.79 10.75 157.64 10.93 158.48C11.31 160.26 11.9 161.83 12.4 163.53L13.39 167.48C13.98 170.05 14.32 171.97 14.32 174.64C12.28 175.12 12.9 175.91 12.88 176.66C12.88 176.85 12.82 176.95 12.82 177.27L12.89 179.22C12.94 180.01 12.8 179.62 13.21 180.1C14.54 181.69 14.36 181.34 16 180.67C16.53 180.45 16.94 180.32 16.94 179.66V176.21C16.94 176 16.33 175.29 16.17 175.11C16.01 174.93 15.86 174.85 15.68 174.7C15.45 174.5 15.38 174.48 15.36 174.12C15.3 172.89 15.27 171.86 15.1 170.71C14.9 169.39 14.5 167.4 14.14 166.13L13.39 163.21C12.84 161.28 12.18 159.45 11.78 157.48C11.67 156.96 11.55 156.59 11.43 156.03C10.81 153.3 10.73 151.08 11.71 148.43C12 147.66 12.72 146.08 13.5 145.87C14.03 146.23 13.7 146.5 13.55 147.04C13.19 148.33 13.64 149.76 13.92 150.99C14.74 154.52 15.67 157.89 15.67 161.6L15.8 166.04C16.07 168.05 15.95 169.86 16.87 171.71C17.36 172.7 18.06 173.48 18.88 174.2C19.23 174.51 19.82 174.86 20.31 175.02C22 175.58 22.48 175.16 23.62 175.16C23.89 175.67 24.02 176.18 24.21 176.74C24.56 177.78 24.9 178.84 25.39 179.83C25.56 180.17 25.61 180.21 25.79 180.48C26.13 180.97 26.58 182.08 26.82 182.68C27.14 183.47 28.49 186.52 28.64 187.15C28.28 187.23 28.19 187.3 27.91 187.46C26.76 188.15 25.76 187.9 26.53 189.85C26.68 190.23 26.81 190.34 26.96 190.69L28.57 194.18C29.56 196.19 30.34 198.32 31.34 200.33C31.58 200.82 32.43 202.5 32.46 202.95C31.43 203.19 30.43 203.64 29.43 204.04C28.52 204.4 27.25 205.07 26.62 205.8C23.87 208.94 24.51 214.8 26.27 218.29C26.82 219.37 27.26 220.31 27.97 221.31C30.38 224.7 35.23 228.55 39.19 225.26C39.59 224.93 40.04 224.72 40.48 224.45C40.9 224.2 42.15 223.57 42.4 223.22C42.5 223.08 42.48 223.05 42.6 222.9C42.73 222.74 42.71 222.81 42.83 222.6C42.98 222.35 43.04 222.16 43.19 221.91C43.35 221.65 43.41 221.5 43.53 221.2C44.53 218.69 44 217.39 44 215.75C44.53 215.63 45.35 215.7 45.89 215.62C46.4 215.55 47.27 215.6 47.82 215.6C49.21 215.6 50.05 215.4 51.57 215.45L53.44 215.53C55.97 215.53 55.91 215.95 58.13 216.68C60.12 217.34 62.13 217.9 64.02 218.65L69.62 220.84C69.62 223.47 71.08 226.4 73.6 227.42C74.05 227.6 74.39 227.74 74.88 227.86C75.75 228.07 76.72 228.03 77.61 227.86C78.25 227.74 78.58 227.77 79.45 227C80.64 225.94 81.53 224.51 81.53 222.56C81.53 220.61 80.25 218.26 78.71 217.06C78.56 216.94 78.52 216.89 78.39 216.78C78.19 216.61 77.91 216.4 77.7 216.27C77.99 215.73 78.74 214.89 79.18 214.38C79.35 214.18 79.51 214.01 79.65 213.8C80.7 213.8 81.64 214.08 82.68 214.14C83.18 214.17 83.93 213.32 84.32 213C84.46 212.88 84.48 212.89 84.61 212.77C84.74 212.65 84.77 212.61 84.92 212.48L85.77 211.76C86 211.54 86.14 211.47 86.37 211.24C86.6 211.01 86.75 210.94 86.97 210.72C87.21 210.48 87.31 210.41 87.56 210.19C87.89 209.9 87.76 209.91 88.29 209.79C89.36 209.54 89.02 209.56 89.38 208.64L89.98 207.07L92.85 208.47C93.07 208.58 93.13 208.61 93.33 208.74C94.82 209.77 96.46 205.77 94.67 205.38C94.09 205.25 91.12 204.6 90.91 204.63C90.71 204.67 90.49 204.88 90.36 204.97C90.38 204.74 90.43 204.7 90.43 204.45C90.43 203.1 89.58 202.96 88.64 202.64C88.36 202.54 88.1 202.49 87.76 202.39C87.13 202.21 86.59 202.04 85.95 201.88C85.65 201.81 85.4 201.74 85.06 201.65C84.46 201.5 84.77 201.6 84.14 201.6C83.96 200.83 83.48 200.5 82.72 200.33C82.72 199.23 82.72 198.95 82.43 198.15C82 196.94 81.44 196.78 80.39 196.45C80.08 196.35 79.81 196.27 79.47 196.17C78.63 195.93 77.73 195.55 76.81 195.77C76.57 195.83 76.47 195.89 76.21 195.92C76.21 195.5 76.22 195.72 76.02 195.43C75.29 194.36 74.79 193.81 73.3 193.66C72.57 193.58 71.85 193.4 71.17 193.24C69.85 192.93 69.1 192.54 67.92 193.33C67.64 193.52 67.27 193.9 66.99 193.98C67.51 191.75 66.95 191.7 67.81 191.65C68.43 191.61 68.79 191.31 69.37 191.11C70.1 190.85 70.45 189.91 70.45 189.11C70.45 187.42 69.59 187.96 68.96 187.91C68.29 187.86 65.11 186.92 64.15 186.72C63.88 186.67 63.46 186.59 63.26 186.49C63.28 186.26 63.33 186.22 63.33 185.97C63.33 185.36 62 185.46 61.55 185.61C60.45 185.96 59.49 186.79 58.71 187.56C58.11 188.15 57.08 190.24 59.22 190.24C59.2 190.46 58.99 191.28 58.92 191.44L54.6 190.06C54.24 189.94 53.82 189.81 53.5 189.73C52.48 189.46 52.47 188.53 51.82 187.22L50.45 184.32C50.02 183.35 49.69 182.33 49.22 181.35C48.81 180.48 49.04 180.05 47.75 180.05C47.55 179.67 47.38 179.15 47.21 178.71C47.05 178.27 46.87 177.83 46.68 177.37C46.33 176.54 45.81 175.71 45.35 174.95L44.61 173.82C44.47 173.57 44.49 173.42 44.31 173.14L42.5 170.31C42.86 169.64 43.2 169.22 43.4 168.36C44.13 165.31 43.49 163.53 42.49 160.72C41.59 158.2 38.11 152.13 36.7 150.03C36.49 149.72 36.34 149.47 36.12 149.19C35.7 148.63 35.29 148.01 34.8 147.51C34.05 146.74 33.43 145.91 32.57 145.24C31.65 144.53 31.18 143.96 30.1 143.29C29.48 142.91 28.81 142.56 27.97 142.42C26.35 142.15 26.87 142.57 26.46 141.69C26.39 141.55 26.25 141.38 26.15 141.25L24.95 139.45C24.61 138.99 24.29 138.42 23.68 138.91C22.77 139.62 25.01 141.37 25.04 142.44H24.74L24.73 142.41ZM41.51 202.36C41.51 201.1 41.58 200.06 41.58 198.76L43.6 199.58C43.52 200.56 43.3 202.05 43.3 203.03L41.5 202.36H41.51ZM41.29 198.31C41.29 199.2 40.99 200.53 40.99 202.51C40.99 202.85 42.41 203.38 42.79 203.56C43.02 203.67 43.22 203.76 43.54 203.78C43.87 203.28 43.92 203.24 43.91 202.2L43.99 200.33C43.99 199.96 44.02 199.32 43.78 199.11C43.73 199.06 43.08 198.8 43 198.76C42.6 198.61 41.64 198.17 41.29 198.3V198.31ZM55.15 201.61C55.15 202.24 55.19 202.07 55.23 202.43L52.02 201.52C51.69 201.44 51.73 201.52 51.63 201.23C51.52 200.91 51.56 199.75 51.56 199.35C51.56 198.12 52.03 196.56 52.46 195.75L56.43 197.1C55.68 198.51 55.16 199.84 55.16 201.6L55.15 201.61ZM52.68 195.39C52.72 195.21 52.98 194.72 53.13 194.72L56.14 195.61C56.43 195.7 56.85 195.82 57.18 195.84C57.11 196.09 56.87 196.38 56.73 196.59C56.49 196.57 55.99 196.36 55.71 196.26L52.68 195.39ZM50.88 199.21C50.88 199.83 50.7 201.58 51.4 201.84L52.71 202.33C56.56 203.82 55.83 203.23 55.83 201.54C55.83 199.98 56.75 197.34 57.58 196.17L57.68 196.04C57.88 195.82 57.85 196.01 57.93 195.69C57.7 195.35 57.56 195.46 56.91 195.21C56.4 195.01 53.63 194.19 53.21 194.19C52.15 194.19 50.89 197.67 50.89 199.21H50.88ZM32.07 214.57C32.3 214.59 32.36 214.61 32.49 214.75C32.73 215.01 32.91 215.53 32.82 215.92C32.55 215.85 32.41 215.66 32.27 215.42C32.09 215.12 32.07 215.02 32.07 214.57ZM31.47 214.94C31.47 216.56 33.57 217.37 33.57 215.61C33.57 214.84 32.84 213.89 32.22 213.89C31.8 213.89 31.47 214.49 31.47 214.94ZM32.59 207.23L32.66 210.75C32.68 211.08 32.73 211.06 32.74 211.42L32.81 212.99C32.83 213.32 32.85 213.45 33.11 213.52C33.11 212.92 33.24 212.5 33.17 211.88C33.11 211.33 33.11 210.79 33.11 210.14C33.11 209.73 33.05 209.66 33.03 209.32C33.01 209.03 33.04 208.71 33.03 208.42L32.93 207.17C32.84 206.96 32.9 207.02 32.66 206.99C32.61 207.08 32.59 207.07 32.59 207.21V207.23ZM34.02 213.89C34.47 213.85 35.21 213.02 35.49 212.66C36.07 211.91 36.72 211.67 36.72 210.97C36.39 210.97 36.43 210.99 36.25 211.17L34.27 213.38C34.11 213.57 34.06 213.58 34.03 213.89H34.02ZM39.19 217.34C39.18 216.87 39.04 216.94 38.11 216.4L36.18 215.33C35.94 215.18 35.76 215.1 35.49 214.97C35.09 214.77 34.55 214.36 34.09 214.35C34.18 214.69 34.74 214.94 35.23 215.23C35.82 215.59 38.57 217.33 39.19 217.34ZM38.36 221.99C38.63 221.67 37.81 220.67 37.53 220.2L35.5 217.14C35.37 216.94 34.56 215.66 34.38 215.85C34.2 216.03 35.04 217.23 35.18 217.46L37.68 221.32C37.85 221.58 38.01 221.9 38.35 221.99H38.36ZM35.29 223.34C35.29 222.81 34.56 220.58 34.36 219.92C34.16 219.27 33.78 217.59 33.49 216.96C33.39 216.75 33.42 216.73 33.19 216.67C33.08 216.9 33.22 217.14 33.31 217.45C33.41 217.78 33.44 218.02 33.54 218.34C33.89 219.52 34.03 220.6 34.51 221.87C34.65 222.24 34.7 222.69 34.92 223.11C35.03 223.31 35 223.32 35.29 223.34ZM30.42 220.49H30.79C30.99 219.63 32.06 217.58 32.06 216.82C31.68 216.85 31.64 217.17 31.46 217.57C31.14 218.3 30.25 219.81 30.41 220.49H30.42ZM27.72 214.04C27.72 214.22 27.84 214.34 28.02 214.34H31.09C31.37 214.34 31.43 214.27 31.54 214.12C31.17 213.87 31.19 213.99 30.64 213.97C30.27 213.95 30.06 213.89 29.59 213.89C29.26 213.89 28.86 213.91 28.54 213.89C28.23 213.87 27.72 213.64 27.72 214.04Z" fill="black"/>
<path d="M94.75 207.25C96.35 208.02 97.96 208.79 101.88 208.75C105.8 208.71 112.04 207.87 116.37 207.26C120.7 206.65 123.12 206.29 125.1 206.62C127.08 206.95 128.62 207.98 129.26 209.23C129.9 210.48 129.64 211.94 128.56 212.68C127.48 213.41 125.57 213.41 123.66 213.41" stroke="black" stroke-width="2" stroke-miterlimit="22.93"/>
<path d="M95.29 181.98C95.29 183.54 94.98 185.03 94.36 186.46C93.74 187.89 92.89 189.14 91.83 190.23C90.77 191.32 89.51 192.19 88.06 192.84C86.61 193.49 85.05 193.81 83.39 193.81H41.67V139.33H83.39C84.95 139.33 86.45 139.64 87.9 140.26C89.35 140.88 90.62 141.73 91.71 142.79C92.8 143.85 93.67 145.1 94.32 146.53C94.97 147.96 95.29 149.5 95.29 151.16V181.98ZM80.27 155.83C80.27 154.9 79.95 154.09 79.3 153.42C78.65 152.75 77.86 152.41 76.93 152.41H56.62V180.74H76.93C77.86 180.74 78.66 180.4 79.3 179.73C79.95 179.06 80.27 178.25 80.27 177.32V155.84V155.83ZM150.94 193.81H103.93V139.33H150.94V152.4H118.95V159.56H144.94V172.71H118.95V180.73H150.94V193.8V193.81ZM208.45 152.4H189.85V193.8H174.91V152.4H156.15V139.33H208.45V152.4ZM255.77 139.33C257.33 139.33 258.82 139.64 260.25 140.26C261.68 140.88 262.93 141.73 264.02 142.79C265.11 143.85 265.98 145.1 266.63 146.53C267.28 147.96 267.6 149.5 267.6 151.16V164.39C267.6 165.84 267.34 167.23 266.82 168.55C266.3 169.87 265.57 171.05 264.64 172.09C263.71 173.13 262.59 174 261.29 174.7C259.99 175.4 258.57 175.85 257.01 176.06L267.75 193.8H251.56L240.9 176.21H228.99V193.8H213.97V139.32H255.76L255.77 139.33ZM252.65 155.83C252.65 154.9 252.33 154.09 251.68 153.42C251.03 152.75 250.24 152.41 249.31 152.41H229V163.15H249.31C250.24 163.15 251.04 162.81 251.68 162.14C252.33 161.47 252.65 160.66 252.65 159.73V155.84V155.83ZM316.55 139.33C318.11 139.33 319.61 139.64 321.06 140.26C322.51 140.88 323.78 141.73 324.87 142.79C325.96 143.85 326.83 145.1 327.48 146.53C328.13 147.96 328.45 149.5 328.45 151.16V181.98C328.45 183.54 328.14 185.03 327.52 186.46C326.9 187.89 326.05 189.14 324.99 190.23C323.93 191.32 322.67 192.19 321.22 192.84C319.77 193.49 318.21 193.81 316.55 193.81H286.43C284.87 193.81 283.38 193.5 281.95 192.88C280.52 192.26 279.27 191.41 278.18 190.35C277.09 189.29 276.22 188.04 275.57 186.61C274.92 185.18 274.6 183.64 274.6 181.98V151.16C274.6 149.6 274.91 148.11 275.53 146.69C276.15 145.26 277 144.01 278.06 142.92C279.12 141.83 280.37 140.96 281.8 140.31C283.23 139.66 284.77 139.34 286.43 139.34H316.55V139.33ZM313.52 155.83C313.52 154.9 313.18 154.09 312.51 153.42C311.84 152.75 311.03 152.41 310.1 152.41H292.9C292.02 152.41 291.24 152.75 290.57 153.42C289.9 154.09 289.56 154.9 289.56 155.83V177.31C289.56 178.24 289.9 179.05 290.57 179.72C291.24 180.39 292.02 180.73 292.9 180.73H310.1C311.03 180.73 311.84 180.39 312.51 179.72C313.18 179.05 313.52 178.24 313.52 177.31V155.83ZM352.12 139.33V193.81H337.18V139.33H352.12ZM410.02 152.4H391.42V193.8H376.48V152.4H357.72V139.33H410.02V152.4Z" fill="#003399"/>
</g>
<defs>
<clipPath id="clip0_1_2">
<rect width="432.53" height="228.03" fill="white"/>
</clipPath>
</defs>
</svg>
